<svg width="1200" height="500" viewBox="0 0 1200 500" fill="none" xmlns="http://www.w3.org/2000/svg">
<rect width="1200" height="500" fill="#E5E5E5"/>
<rect width="1200" height="500" fill="#665DC3"/>
<path d="M130.705 112.728L214.107 181.491L141.872 196.845L130.705 112.728Z" fill="#7D75CD"/>
<ellipse cx="302" cy="74" rx="32" ry="30" fill="#7D75CD"/>
<rect width="51" height="48" transform="matrix(0.878817 0.477159 -0.324743 0.945802 645.588 313)" fill="#7D75CD"/>
<rect width="51" height="48" transform="matrix(0.878817 0.477159 -0.324743 0.945802 645.588 178)" fill="#7D75CD"/>
<rect width="51" height="48" transform="matrix(0.878817 0.477159 -0.324743 0.945802 484.588 104)" fill="#7D75CD"/>
<rect width="89.7354" height="77.4121" transform="matrix(1 0 -0.324743 0.945802 162.139 334)" fill="#7D75CD"/>
<rect width="68.6424" height="47.0965" transform="matrix(0.537856 -0.843037 0.622681 0.782476 1062 102.868)" fill="#7D75CD"/>
<path d="M825 399L840.588 435.75H809.412L825 399Z" fill="#7D75CD"/>
<path d="M985.661 328.753L1039.98 355.841L983.361 389.406L985.661 328.753Z" fill="#7D75CD"/>
<path d="M712.743 58.3358L739.367 128.679L686.119 89.9924L712.743 58.3358Z" fill="#7D75CD"/>
<ellipse rx="23.5" ry="20.5" transform="matrix(1 0 0.340215 0.940348 946.474 123.277)" fill="#7D75CD"/>
<ellipse rx="23.5" ry="20.5" transform="matrix(1 0 0.340215 0.940348 885.474 243.277)" fill="#7D75CD"/>
<ellipse rx="41" ry="32.5" transform="matrix(0.785317 0.619094 -0.38655 0.922268 478.635 399.357)" fill="#7D75CD"/>
<path d="M366.981 213L389.481 264.99L344.481 239.01L366.981 213Z" fill="#7D75CD"/>
<path d="M1110.98 228L1133.48 279.99L1088.48 254.01L1110.98 228Z" fill="#7D75CD"/>
</svg>
